<svg aria-hidden="true" style="position:absolute;width:0;height:0;overflow:hidden" xmlns="http://www.w3.org/2000/svg"><defs><symbol id="phone" viewBox="0 0 32 32"><path d="M22 20c-2 2-2 4-4 4s-4-2-6-4-4-4-4-6 2-2 4-4-4-8-6-8-6 6-6 6c0 4 4.109 12.109 8 16s12 8 16 8c0 0 6-4 6-6s-6-8-8-6z"/></symbol><symbol id="menu" viewBox="0 0 32 32"><path d="M2 6h28v6H2zm0 8h28v6H2zm0 8h28v6H2z"/></symbol><symbol id="cross" viewBox="0 0 32 32"><path d="M31.708 25.708 22 16l9.708-9.708a1 1 0 0 0 0-1.414L27.122.292a1 1 0 0 0-1.414-.001L16 9.999 6.292.291a.998.998 0 0 0-1.414.001L.292 4.878a1 1 0 0 0 0 1.414L10 16 .292 25.708a.999.999 0 0 0 0 1.414l4.586 4.586a1 1 0 0 0 1.414 0L16 22l9.708 9.708a1 1 0 0 0 1.414 0l4.586-4.586a.999.999 0 0 0 0-1.414z"/></symbol><symbol id="droplet" viewBox="0 0 32 32"><path d="M27.02 14.786C24.965 9.054 20.61 3.906 16 0 11.39 3.907 7.035 9.054 4.98 14.786c-1.271 3.545-1.396 7.393.393 10.794C7.431 29.491 11.58 32 15.999 32s8.569-2.509 10.626-6.42c1.79-3.401 1.664-7.249.393-10.794zm-3.934 8.931C21.717 26.319 18.936 28 16 28a8.043 8.043 0 0 1-4.753-1.583c.414.054.832.083 1.254.083 3.67 0 7.146-2.1 8.856-5.351 1.402-2.665 1.281-5.433.746-7.636.455.88.841 1.756 1.151 2.623.706 1.971 1.251 4.886-.168 7.581z"/></symbol><symbol id="school" viewBox="0 0 32 32"><path d="M2.667 26.667h26.667v2.667H2.667v-2.667zM5.333 16H8v9.333H5.333V16zM12 16h2.667v9.333H12V16zm5.333 0H20v9.333h-2.667V16zM24 16h2.667v9.333H24V16zM2.667 9.333 16 2.666l13.333 6.667v5.333H2.666V9.333zm2.666 1.648V12h21.333v-1.019L15.999 5.648 5.332 10.981zM16 10.667a1.333 1.333 0 0 1 0-2.666 1.333 1.333 0 0 1 0 2.666z"/></symbol><symbol id="building" viewBox="0 0 32 32"><path d="M4 25.333V7.6c0-.573.361-1.061.868-1.25l.009-.003 12.895-4.688a.667.667 0 0 1 .895.627V8.89l8.421 2.807c.534.182.912.679.912 1.265v12.372h2.667v2.667H1.334v-2.667h2.667zm2.667 0H16V5.14L6.667 8.535v16.799zm18.666 0V13.922l-6.667-2.223v13.633h6.667z"/></symbol><symbol id="house" viewBox="0 0 32 32"><path d="M28 28H4a1.333 1.333 0 0 1-1.333-1.333V16.65c0-.4.176-.759.456-1.004l.002-.001 4.876-4.252V5.334c0-.736.597-1.333 1.333-1.333h18.667c.736 0 1.333.597 1.333 1.333v21.333c0 .736-.597 1.333-1.333 1.333zm-16-2.667h4v-8.077l-5.333-4.651-5.333 4.651v8.077h4V20h2.667v5.333zm6.667 0h8V6.666h-16v2.836c.312 0 .625.109.876.329l6.667 5.812c.281.246.457.605.457 1.005v8.684zm2.666-10.666H24v2.667h-2.667v-2.667zm0 5.333H24v2.667h-2.667V20zm0-10.667H24V12h-2.667V9.333zm-5.333 0h2.667V12H16V9.333z"/></symbol><symbol id="shop" viewBox="0 0 32 32"><path d="M28 15.528V28c0 .736-.597 1.333-1.333 1.333H5.334A1.333 1.333 0 0 1 4.001 28V15.528a5.287 5.287 0 0 1-1.333-3.52V4c0-.736.597-1.333 1.333-1.333h24c.736 0 1.333.597 1.333 1.333v8a5.32 5.32 0 0 1-1.333 3.528zm-2.667 1.637a5.203 5.203 0 0 1-1.329.168 5.33 5.33 0 0 1-3.999-1.8L20 15.527a5.312 5.312 0 0 1-3.994 1.805H15.993a5.308 5.308 0 0 1-3.989-1.8l-.005-.006a5.312 5.312 0 0 1-3.996 1.808 5.32 5.32 0 0 1-1.374-.179l.037.008v9.501h18.667v-9.501zM18.667 12a1.333 1.333 0 0 1 2.666 0 2.667 2.667 0 1 0 5.334 0V5.333H5.334V12a2.667 2.667 0 1 0 5.334 0 1.333 1.333 0 0 1 2.666 0 2.667 2.667 0 1 0 5.334 0z"/></symbol><symbol id="mail" viewBox="0 0 32 32"><path d="M26.667 0H5.334C2.4 0 0 2.4 0 5.334v21.332C0 29.602 2.4 32 5.334 32h21.333C29.601 32 32 29.602 32 26.666V5.334C32 2.4 29.601 0 26.667 0zM5.707 27.707l-2.414-2.414 8-8 .914.914-6.5 9.5zm-.914-21.5.914-.914L16 13.586l10.293-8.293.914.914L16 19.414 4.793 6.207zm21.5 21.5-6.5-9.5.914-.914 8 8-2.414 2.414z"/></symbol><symbol id="facebook" viewBox="0 0 32 32"><path d="M29 0H3C1.35 0 0 1.35 0 3v26c0 1.65 1.35 3 3 3h13V18h-4v-4h4v-2c0-3.306 2.694-6 6-6h4v4h-4c-1.1 0-2 .9-2 2v2h6l-1 4h-5v14h9c1.65 0 3-1.35 3-3V3c0-1.65-1.35-3-3-3z"/></symbol><symbol id="instagram" viewBox="0 0 32 32"><path d="M16 2.881c4.275 0 4.781.019 6.462.094 1.563.069 2.406.331 2.969.55a4.952 4.952 0 0 1 1.837 1.194 5.015 5.015 0 0 1 1.2 1.838c.219.563.481 1.412.55 2.969.075 1.688.094 2.194.094 6.463s-.019 4.781-.094 6.463c-.069 1.563-.331 2.406-.55 2.969a4.94 4.94 0 0 1-1.194 1.837 5.02 5.02 0 0 1-1.837 1.2c-.563.219-1.413.481-2.969.55-1.688.075-2.194.094-6.463.094s-4.781-.019-6.463-.094c-1.563-.069-2.406-.331-2.969-.55a4.952 4.952 0 0 1-1.838-1.194 5.02 5.02 0 0 1-1.2-1.837c-.219-.563-.481-1.413-.55-2.969-.075-1.688-.094-2.194-.094-6.463s.019-4.781.094-6.463c.069-1.563.331-2.406.55-2.969a4.964 4.964 0 0 1 1.194-1.838 5.015 5.015 0 0 1 1.838-1.2c.563-.219 1.412-.481 2.969-.55 1.681-.075 2.188-.094 6.463-.094zM16 0c-4.344 0-4.887.019-6.594.094-1.7.075-2.869.35-3.881.744-1.056.412-1.95.956-2.837 1.85a7.833 7.833 0 0 0-1.85 2.831C.444 6.538.169 7.7.094 9.4.019 11.113 0 11.656 0 16s.019 4.887.094 6.594c.075 1.7.35 2.869.744 3.881.413 1.056.956 1.95 1.85 2.837a7.82 7.82 0 0 0 2.831 1.844c1.019.394 2.181.669 3.881.744 1.706.075 2.25.094 6.594.094s4.888-.019 6.594-.094c1.7-.075 2.869-.35 3.881-.744 1.05-.406 1.944-.956 2.831-1.844s1.438-1.781 1.844-2.831c.394-1.019.669-2.181.744-3.881.075-1.706.094-2.25.094-6.594s-.019-4.887-.094-6.594c-.075-1.7-.35-2.869-.744-3.881a7.506 7.506 0 0 0-1.831-2.844A7.82 7.82 0 0 0 26.482.843C25.463.449 24.301.174 22.601.099c-1.712-.081-2.256-.1-6.6-.1z"/><path d="M16 7.781c-4.537 0-8.219 3.681-8.219 8.219s3.681 8.219 8.219 8.219 8.219-3.681 8.219-8.219A8.221 8.221 0 0 0 16 7.781zm0 13.55a5.331 5.331 0 1 1 0-10.663 5.331 5.331 0 0 1 0 10.663zM26.462 7.456a1.919 1.919 0 1 1-3.838 0 1.919 1.919 0 0 1 3.838 0z"/></symbol><symbol id="telegram" viewBox="0 0 32 32"><path d="M16 0C7.162 0 0 7.162 0 16s7.162 16 16 16 16-7.163 16-16S24.837 0 16 0zm7.863 10.969-2.625 12.369c-.181.881-.712 1.087-1.45.681l-4-2.956-1.919 1.869c-.225.219-.4.4-.8.4-.519 0-.431-.194-.606-.688L11.1 18.169l-3.956-1.231c-.856-.262-.862-.85.194-1.269l15.412-5.95c.7-.319 1.381.169 1.113 1.25z"/></symbol><symbol id="youtube" viewBox="0 0 32 32"><path d="M31.681 9.6s-.313-2.206-1.275-3.175C29.187 5.15 27.825 5.144 27.2 5.069c-4.475-.325-11.194-.325-11.194-.325h-.012s-6.719 0-11.194.325c-.625.075-1.987.081-3.206 1.356C.631 7.394.325 9.6.325 9.6s-.319 2.588-.319 5.181v2.425c0 2.587.319 5.181.319 5.181s.313 2.206 1.269 3.175c1.219 1.275 2.819 1.231 3.531 1.369 2.563.244 10.881.319 10.881.319s6.725-.012 11.2-.331c.625-.075 1.988-.081 3.206-1.356.962-.969 1.275-3.175 1.275-3.175s.319-2.587.319-5.181v-2.425c-.006-2.588-.325-5.181-.325-5.181zM12.694 20.15v-8.994l8.644 4.513-8.644 4.481z"/></symbol><symbol id="location" viewBox="0 0 32 32"><path d="M16 0C10.477 0 6 4.477 6 10c0 10 10 22 10 22s10-12 10-22c0-5.523-4.477-10-10-10zm0 16.125a6.125 6.125 0 1 1 0-12.25 6.125 6.125 0 0 1 0 12.25zM12.125 10a3.875 3.875 0 1 1 7.75 0 3.875 3.875 0 0 1-7.75 0z"/></symbol><symbol id="droplet" viewBox="0 0 32 32"><path d="M27.02 14.786C24.965 9.054 20.61 3.906 16 0 11.39 3.907 7.035 9.054 4.98 14.786c-1.271 3.545-1.396 7.393.393 10.794C7.431 29.491 11.58 32 15.999 32s8.569-2.509 10.626-6.42c1.79-3.401 1.664-7.249.393-10.794zm-3.934 8.931C21.717 26.319 18.936 28 16 28a8.043 8.043 0 0 1-4.753-1.583c.414.054.832.083 1.254.083 3.67 0 7.146-2.1 8.856-5.351 1.402-2.665 1.281-5.433.746-7.636.455.88.841 1.756 1.151 2.623.706 1.971 1.251 4.886-.168 7.581z"/></symbol><symbol id="user-check" viewBox="0 0 32 32"><path d="m30 19-9 9-3-3-2 2 5 5 11-11z"/><path d="M14 24h10v-3.598c-2.101-1.225-4.885-2.066-8-2.321v-1.649c2.203-1.242 4-4.337 4-7.432 0-4.971 0-9-6-9S8 4.029 8 9c0 3.096 1.797 6.191 4 7.432v1.649c-6.784.555-12 3.888-12 7.918h14v-2z"/></symbol><symbol id="cogs" viewBox="0 0 32 32"><path d="m11.366 22.564 1.291-1.807-1.414-1.414-1.807 1.291a4.996 4.996 0 0 0-1.071-.444L8 18H6l-.365 2.19a4.946 4.946 0 0 0-1.071.444l-1.807-1.291-1.414 1.414 1.291 1.807a4.943 4.943 0 0 0-.443 1.071L.001 24v2l2.19.365c.107.377.256.736.444 1.071l-1.291 1.807 1.414 1.414 1.807-1.291c.335.187.694.337 1.071.444L6.001 32h2l.365-2.19a4.946 4.946 0 0 0 1.071-.444l1.807 1.291 1.414-1.414-1.291-1.807c.187-.335.337-.694.444-1.071l2.19-.365v-2l-2.19-.365a4.946 4.946 0 0 0-.444-1.071zM7 27a2 2 0 1 1-.001-3.999A2 2 0 0 1 7 27zm25-15v-2l-2.106-.383a8.715 8.715 0 0 0-.148-.743l1.799-1.159-.765-1.848-2.092.452a8.957 8.957 0 0 0-.422-.629l1.219-1.761-1.414-1.414-1.761 1.219a8.957 8.957 0 0 0-.629-.422l.452-2.092-1.848-.765-1.159 1.799a9.122 9.122 0 0 0-.743-.148L22 0h-2l-.383 2.106a8.715 8.715 0 0 0-.743.148L17.715.455l-1.848.765.452 2.092a8.957 8.957 0 0 0-.629.422l-1.761-1.219-1.414 1.414 1.219 1.761c-.149.203-.29.413-.422.629l-2.092-.452-.765 1.848 1.799 1.159a9.122 9.122 0 0 0-.148.743L10 10v2l2.106.383c.039.251.088.499.148.743l-1.799 1.159.765 1.848 2.092-.452c.132.216.273.426.422.629l-1.219 1.761 1.414 1.414 1.761-1.219c.203.149.413.29.629.422l-.452 2.092 1.848.765 1.159-1.799c.244.059.492.109.743.148L20 22h2l.383-2.106c.251-.039.499-.088.743-.148l1.159 1.799 1.848-.765-.452-2.092c.216-.132.426-.273.629-.422l1.761 1.219 1.414-1.414-1.219-1.761c.149-.203.29-.413.422-.629l2.092.452.765-1.848-1.799-1.159c.059-.244.109-.492.148-.743L32 12zm-11 3.35a4.35 4.35 0 1 1 .001-8.701A4.35 4.35 0 0 1 21 15.35z"/></symbol><symbol id="clipboard" viewBox="0 0 32 32"><path d="M29 4h-9a4 4 0 0 0-8 0H3a1 1 0 0 0-1 1v26a1 1 0 0 0 1 1h26a1 1 0 0 0 1-1V5a1 1 0 0 0-1-1zM16 2a2 2 0 1 1 .001 3.999A2 2 0 0 1 16 2zm12 28H4V6h4v3a1 1 0 0 0 1 1h14a1 1 0 0 0 1-1V6h4v24z"/><path d="m14 26.828-6.414-7.414 1.828-1.828L14 21.172l8.586-7.586 1.829 1.828z"/></symbol><symbol id="circle-right" viewBox="0 0 32 32"><path d="M16 0C7.163 0 0 7.163 0 16s7.163 16 16 16 16-7.163 16-16S24.837 0 16 0zm0 29C8.82 29 3 23.18 3 16S8.82 3 16 3s13 5.82 13 13-5.82 13-13 13z"/><path d="m11.086 22.086 2.829 2.829 8.914-8.914-8.914-8.914-2.828 2.828 6.086 6.086z"/></symbol><symbol id="circle-left" viewBox="0 0 32 32"><path d="M16 32c8.837 0 16-7.163 16-16S24.837 0 16 0 0 7.163 0 16s7.163 16 16 16zm0-29c7.18 0 13 5.82 13 13s-5.82 13-13 13S3 23.18 3 16 8.82 3 16 3z"/><path d="m20.914 9.914-2.829-2.829-8.914 8.914 8.914 8.914 2.828-2.828-6.086-6.086z"/></symbol><symbol id="arrow-up" viewBox="0 0 32 32"><path d="M16 1 1 16h9v16h12V16h9z"/></symbol><symbol id="arrow-up2" viewBox="0 0 32 32"><path d="m27.414 12.586-10-10a2 2 0 0 0-2.828 0l-10 10a2 2 0 1 0 2.828 2.828L14 8.828V28a2 2 0 1 0 4 0V8.828l6.586 6.586c.39.39.902.586 1.414.586s1.024-.195 1.414-.586a2 2 0 0 0 0-2.828z"/></symbol></defs></svg>